#format: frame checksums
#version: 2
#hash: MD5
#software: Lavf62.12.101
#tb 0: 1/25
#media_type 0: video
#codec_id 0: rawvideo
#dimensions 0: 640x360
#sar 0: 1/1
#tb 1: 1/44100
#media_type 1: audio
#codec_id 1: pcm_s16le
#sample_rate 1: 44100
#channel_layout_name 1: stereo
#stream#, dts,        pts, duration,     size, hash
0,          0,          0,        1,   345600, 7d185cdc484d2373765a7939ffcca30b
1,          0,          0,     2048,     8192, 0829f71740aab1ab98b33eae21dee122
0,          1,          1,        1,   345600, 96d00cc80b0b2218a1b469a35bc3040a
1,       2048,       2048,     2048,     8192, 0829f71740aab1ab98b33eae21dee122
0,          2,          2,        1,   345600, bbdc9dda85c24921ab7ff76a0bc901c2
1,       4096,       4096,     2048,     8192, 026356b75b9d10e17684427da3b496a9
0,          3,          3,        1,   345600, 3a1ddd35d9ba60a3a780ad2a0b7f1502
1,       6144,       6144,     2048,     8192, 8935f8f1a18ffca902018f3bb2ec6e5b
0,          4,          4,        1,   345600, 7f120a65b1b8a5fc5bbdf9a81857a08d
1,       8192,       8192,     2048,     8192, 850f1945605aebce611bb7a79479beec
0,          5,          5,        1,   345600, fe4297493681a171b1851215f943beed
1,      10240,      10240,     2048,     8192, 6ab4b10e074167c248e3dfaa0a620c4b
0,          6,          6,        1,   345600, 6d708a6da1935eff4090bfa7bb32f29b
1,      12288,      12288,     2048,     8192, 8a7d7f02b53860401b14fb92ef00d103
0,          7,          7,        1,   345600, 0b0671ed213d8d22c2e1c518786fca4f
0,          8,          8,        1,   345600, b9353a61032e073a24986865b5c3280d
1,      14336,      14336,     2048,     8192, edfd3b12257c3518c83aa1011ca091b9
0,          9,          9,        1,   345600, e1b0ee133a18558e350d8b7141fa883d
1,      16384,      16384,     2048,     8192, edf8aac7f2d6930ba9ce9a87c4672f9c
0,         10,         10,        1,   345600, 6c6dc2b30b82ff0ed08c95e7270dc8f6
1,      18432,      18432,     2048,     8192, 01cf7662323a40cbae0c68fef0c9f367
0,         11,         11,        1,   345600, 23bdd39c5c6eca4080d4a7b25d14c684
1,      20480,      20480,     2048,     8192, f54a545972f623ff9e479bd7cb2c0e3d
0,         12,         12,        1,   345600, f041158ccf87871138f1f09822af1b5d
1,      22528,      22528,     2048,     8192, 193610fdc7fc9d96161c4ae3c6f2f5f5
0,         13,         13,        1,   345600, 0a5c09ac9b77c9f3c4f1c78fd515bb91
1,      24576,      24576,     2048,     8192, 8d86ba1de034ae30d11fb27e7016ac9c
0,         14,         14,        1,   345600, dac926b8ef0e374467deb084c1caf426
0,         15,         15,        1,   345600, 809a3ba033529134175103e084deaafb
1,      26624,      26624,     2048,     8192, 2957d2a1d48e8b10635e90db520c5249
0,         16,         16,        1,   345600, a690937222cd2feaa95f1850ef144b2a
1,      28672,      28672,     2048,     8192, e74ef88bd9b3f7dbff3e058eaa374e34
0,         17,         17,        1,   345600, eabada37b76046b798ff526c2beec359
1,      30720,      30720,     2048,     8192, be9275f5b4de7ec23e3cd2f896df8356
0,         18,         18,        1,   345600, b770de6ddae20d52630111ef1f7536a4
1,      32768,      32768,     2048,     8192, 6321337d8c160d63f51d4bddd032c4f5
0,         19,         19,        1,   345600, ef62fb4f1303812ae113b291fe4beef6
1,      34816,      34816,     2048,     8192, 381030707a2ec80af2b85d92f5d4b926
0,         20,         20,        1,   345600, 2568d2a842b5d4e421cf2a630acf8321
1,      36864,      36864,     2048,     8192, 511f98f691a43165f408170e846db4ed
0,         21,         21,        1,   345600, 162fe95d3dbfa2cef7ca8bf0345e3264
0,         22,         22,        1,   345600, 55cb83577d2f391ccdebd12e33ca9f94
1,      38912,      38912,     2048,     8192, 0469500063ab681ca2d8f2a183b41542
0,         23,         23,        1,   345600, b8bc00a2d7ec8db9a3717b97f352d080
1,      40960,      40960,     2048,     8192, 512e3939f9fbf99ca9acd4bcd0f29752
0,         24,         24,        1,   345600, 5dc80d9aefb41125c9778362694e1b61
1,      43008,      43008,     2048,     8192, 7920887a3b8febaaa1be3fcba7af415b
0,         25,         25,        1,   345600, 141c91922dd746d3ae4eac8f9a4ff74c
1,      45056,      45056,     2048,     8192, 63a433f13db73a928c7302ab0b7ffcfd
0,         26,         26,        1,   345600, 55cb83577d2f391ccdebd12e33ca9f94
1,      47104,      47104,     2048,     8192, 9425e126019c65631e8376a214bbf808
0,         27,         27,        1,   345600, 6d476e516b9555dd3c4f4b85dbc59cae
1,      49152,      49152,     2048,     8192, d77a65b34c3428ddb1619416d7f1e1a0
0,         28,         28,        1,   345600, 990ab334bfe476f45f5347e0f21207ce
0,         29,         29,        1,   345600, 6089dab189b2a8ca0dd5e99aaabe06fd
1,      51200,      51200,     2048,     8192, 99279f9ef467e012b6155792e118a4a5
0,         30,         30,        1,   345600, 94eb1eb59c7242271a5250bcce5aa9d1
1,      53248,      53248,     2048,     8192, 5da5fe11840422a23e1c188a0c17f7fb
0,         31,         31,        1,   345600, 74f341dc122ddaa6ad268d10d6ca4899
1,      55296,      55296,     2048,     8192, eb1d370931ab6b37d53b4a300200e199
0,         32,         32,        1,   345600, 9ce9c8007eb5d0563f7e11937d2c4ecd
1,      57344,      57344,     2048,     8192, 7b42665c1dd966f3e6dd4a0f2ff1f672
0,         33,         33,        1,   345600, 6089dab189b2a8ca0dd5e99aaabe06fd
1,      59392,      59392,     2048,     8192, 30286cede1633cd3b5a9a9696070e73d
0,         34,         34,        1,   345600, 3f2a5bf19d40744b6446815a98e8fcab
1,      61440,      61440,     2048,     8192, d82673227a101e00591f65a5e069b145
0,         35,         35,        1,   345600, b6035d21fcd7c8d05b7c0c96adc54976
1,      63488,      63488,     2048,     8192, 5d2e7e9e8a78c1bc1ec53a74822ccb02
0,         36,         36,        1,   345600, 29f07bacb1ad4d15197c28f8374a0f1d
0,         37,         37,        1,   345600, 5976e8ce9f1f53dc72b35ce3e8888eaf
1,      65536,      65536,     2048,     8192, 97b3bd9b55bf38f149eedc38c677b815
0,         38,         38,        1,   345600, 8e5ecc7e7763bd3f5eb098a22d65b789
1,      67584,      67584,     2048,     8192, 20e9960ae355596dd038143ef0bc2e4f
0,         39,         39,        1,   345600, b6035d21fcd7c8d05b7c0c96adc54976
1,      69632,      69632,     2048,     8192, b50deeb72b4108cd6de978599958b47f
0,         40,         40,        1,   345600, 29f07bacb1ad4d15197c28f8374a0f1d
1,      71680,      71680,     2048,     8192, 8390d201bce5b1f46603903e9651344e
0,         41,         41,        1,   345600, 94eb1eb59c7242271a5250bcce5aa9d1
1,      73728,      73728,     2048,     8192, 8d53fd2cdafefee5e3bb566ee4f489cb
0,         42,         42,        1,   345600, 29d4432c7fd5098a8aa89141b177daf6
1,      75776,      75776,     2048,     8192, fe6996fb6681eba3eedd71524f27cd8b
0,         43,         43,        1,   345600, d143f8480a95dad12f2572393b34492c
0,         44,         44,        1,   345600, d3a5567ceddfa889e821ac2f17d01027
1,      77824,      77824,     2048,     8192, c867495323d1d222e6df7d83456eb250
0,         45,         45,        1,   345600, 15fa3a16f1670e51aed3eee67c9ab712
1,      79872,      79872,     2048,     8192, 017901e8ee7ffb34e7833d0a759bccb0
0,         46,         46,        1,   345600, 29d4432c7fd5098a8aa89141b177daf6
1,      81920,      81920,     2048,     8192, 451a8795aec16e383362db4c349bd44a
0,         47,         47,        1,   345600, d143f8480a95dad12f2572393b34492c
1,      83968,      83968,     2048,     8192, 2229b992abb54e108198612b0962f4c5
0,         48,         48,        1,   345600, 5976e8ce9f1f53dc72b35ce3e8888eaf
1,      86016,      86016,     2048,     8192, a8ded479a07b5bd0879f5edd7ccc0f54
0,         49,         49,        1,   345600, 12372870b60943ec1ef0e79294555eae
1,      88064,      88064,     2048,     8192, ff92a5da62549ed407a27a191dea3de1
0,         50,         50,        1,   345600, 4f8e6cac7eb179b3a9d8bf8a1ccf4fb1
0,         51,         51,        1,   345600, 214ed781c4b575b02d41afe39aecff25
1,      90112,      90112,     2048,     8192, 2e415b323445c5be9d880c79b1e561ea
0,         52,         52,        1,   345600, 5a34e7c4c69a49d33f1d9419e4343446
1,      92160,      92160,     2048,     8192, 41b90b95b5e3c4984060a1813b8423f8
0,         53,         53,        1,   345600, 12372870b60943ec1ef0e79294555eae
1,      94208,      94208,     2048,     8192, 673d970a7cce5c0ee8125417308878c1
0,         54,         54,        1,   345600, 4f8e6cac7eb179b3a9d8bf8a1ccf4fb1
1,      96256,      96256,     2048,     8192, 8a7a07c667e3b147216752ca37b8b240
0,         55,         55,        1,   345600, d3a5567ceddfa889e821ac2f17d01027
1,      98304,      98304,     2048,     8192, b57e4fcce6b3453d9e9b9d6d5a6ac5b7
0,         56,         56,        1,   345600, 83a2ea73b98dde38341052ee83b4aa86
1,     100352,     100352,     2048,     8192, 6ad62efeb9a6450e2b8fc25a2706d9d1
0,         57,         57,        1,   345600, 222660cce2ade95b03951ac5c057d357
0,         58,         58,        1,   345600, 492a8a5960472cbdf7d8e824c178fa23
1,     102400,     102400,     2048,     8192, 6a734cc3fd65115b2ddf86283469bf7e
0,         59,         59,        1,   345600, cb09a3d4291503307a1a1e268b541e4c
1,     104448,     104448,     2048,     8192, cecc12e2d0d0db9ab420bacbe4c6fd77
0,         60,         60,        1,   345600, 307041fd1e0a114c42eeb418b190a6cb
1,     106496,     106496,     2048,     8192, 60857cf50fa825fa5e9b815b305963e7
0,         61,         61,        1,   345600, 222660cce2ade95b03951ac5c057d357
1,     108544,     108544,     2048,     8192, 40c80f6528a600a292f8ecc3bf590643
0,         62,         62,        1,   345600, 214ed781c4b575b02d41afe39aecff25
1,     110592,     110592,     2048,     8192, cc4a6f0d0025a66b61fd667c5fa60bf4
0,         63,         63,        1,   345600, 9c289f62c1de932921a1aef6b38954c5
1,     112640,     112640,     2048,     8192, 42cbedf18e4508ccc6922aebaa1e5a75
0,         64,         64,        1,   345600, 3a73f8640f129fb7b923f0ae61f35316
0,         65,         65,        1,   345600, c4ddeabbeb99c6ef203e4335bc78c581
1,     114688,     114688,     2048,     8192, b73ca10fffe14567dc51b8bf16fd9d5e
0,         66,         66,        1,   345600, 1bfe29f8935c832703938eda49edd465
1,     116736,     116736,     2048,     8192, a9e5c4c4da0e3b59b16884839bfe354f
0,         67,         67,        1,   345600, b0495f888c3e9e73fb75a585320b944f
1,     118784,     118784,     2048,     8192, ae35fe1b8213df15515943f5adcbd190
0,         68,         68,        1,   345600, 3a73f8640f129fb7b923f0ae61f35316
1,     120832,     120832,     2048,     8192, 05a2b8a0b9f3981f7cf32f8b30ddd98d
0,         69,         69,        1,   345600, 492a8a5960472cbdf7d8e824c178fa23
1,     122880,     122880,     2048,     8192, d9534edda5ed74789a3d353ddbbf7561
0,         70,         70,        1,   345600, 623cc85f9a165431ce5aea811af9260a
1,     124928,     124928,     2048,     8192, b020648e2fa6ce2c7b9212f95edbd710
0,         71,         71,        1,   345600, b802e5c0b3464845d3c2959f0a6d8a9c
1,     126976,     126976,     2048,     8192, 07d50d7af72cfe7bfd5fa894cd91917a
0,         72,         72,        1,   345600, cf670132207eec3ec70c9392454dfd50
0,         73,         73,        1,   345600, 895a73f24f9f68815d2223b91acfef4b
1,     129024,     129024,     2048,     8192, 3e09a14fe91b3485a49a429d17bc56e8
0,         74,         74,        1,   345600, 623cc85f9a165431ce5aea811af9260a
1,     131072,     131072,     2048,     8192, 2540e54d4abeeb945a853eaa789453a3
0,         75,         75,        1,   345600, b802e5c0b3464845d3c2959f0a6d8a9c
1,     133120,     133120,     2048,     8192, 05114c76459607e6eb5a0d67f16e205a
0,         76,         76,        1,   345600, 56141551b7555c87025c1dd64af4b7be
1,     135168,     135168,     2048,     8192, 5202e051b95b9a729e44c7040102c44c
0,         77,         77,        1,   345600, 914f8db54dc8a1dbaac49e124d843090
1,     137216,     137216,     2048,     8192, 36823e1346cfc684de91f15db51eca28
0,         78,         78,        1,   345600, c3a3ffdf2c102ff66dfbacc4e44aa1c4
1,     139264,     139264,     2048,     8192, 8d592f8de73551ea0095e437cf919e66
0,         79,         79,        1,   345600, 36c05a86619e7ee784e29de4863ecb64
0,         80,         80,        1,   345600, 2a71eab2170a563969cba6332d2486d3
1,     141312,     141312,     2048,     8192, c7861a18d39e98c76c5321611ac12677
0,         81,         81,        1,   345600, 914f8db54dc8a1dbaac49e124d843090
1,     143360,     143360,     2048,     8192, 5a77fef130fa67d6cf5bc7b9c79274dc
0,         82,         82,        1,   345600, c3a3ffdf2c102ff66dfbacc4e44aa1c4
1,     145408,     145408,     2048,     8192, 9754773df0ed3077ade69bf434ce568b
0,         83,         83,        1,   345600, cf670132207eec3ec70c9392454dfd50
1,     147456,     147456,     2048,     8192, ef361d9628ba171ebb57d7058088811b
0,         84,         84,        1,   345600, 8ac1e854cade600de14a2d5bb4b09c59
1,     149504,     149504,     2048,     8192, e7a9ce4c912c1efbeae7ed8776597ac2
0,         85,         85,        1,   345600, bcd0cd151d3c16367b8575900ca9d502
1,     151552,     151552,     2048,     8192, 162145b2e3cd56b5c5128a368a8325e3
0,         86,         86,        1,   345600, 03a98ddcea192298272656ae5318158f
0,         87,         87,        1,   345600, 4e24613c5eef0aa4df2ebc2803d7b5bb
1,     153600,     153600,     2048,     8192, d7076e36651ee2796d31b5efa65b8bec
0,         88,         88,        1,   345600, 8ac1e854cade600de14a2d5bb4b09c59
1,     155648,     155648,     2048,     8192, 34b513f21f560916cc5a854adf4aa629
0,         89,         89,        1,   345600, 36c05a86619e7ee784e29de4863ecb64
1,     157696,     157696,     2048,     8192, 54be252954fa72801ccea8c1df4e683d
0,         90,         90,        1,   345600, 25d6fcb9d2a4e2b4bf64151c221c82f7
1,     159744,     159744,     2048,     8192, f0294fd340370691f0f43f3db685f0ec
0,         91,         91,        1,   345600, c8b28d7796d0b26811a34d1d09808c00
1,     161792,     161792,     2048,     8192, bc8670f4c3cf2140d9ae672e7e99bf20
0,         92,         92,        1,   345600, 5cb80aff0c0b6e3d5bf12bcbbbfdaf6c
1,     163840,     163840,     2048,     8192, b35838efbb5597e42c9c9bec3f1163d0
0,         93,         93,        1,   345600, 58a4f9ff07ae4a8eb1ceb8ba448cd8fc
0,         94,         94,        1,   345600, 9511741af131880efbb6a4ad3553b85b
1,     165888,     165888,     2048,     8192, ccc23849e02d288a3499e5ab08da72ef
0,         95,         95,        1,   345600, 335c633e10019867603367336a15d110
1,     167936,     167936,     2048,     8192, cfee4450a7f7610ca8d210cfc077c07b
0,         96,         96,        1,   345600, 32f7cf727dcd4a02785deefb9f0ecd84
1,     169984,     169984,     2048,     8192, 896d971857e1d567eed781d68288178a
0,         97,         97,        1,   345600, 07eaec99b2389b95a442648b6e96e24a
1,     172032,     172032,     2048,     8192, 977180d08476d1b085cb2b62e6b386ad
0,         98,         98,        1,   345600, faceb24e5d3a8f51881cd25a432bfb70
1,     174080,     174080,     2048,     8192, c9423e222d586ff5ab08ce979a12d099
0,         99,         99,        1,   345600, 335c633e10019867603367336a15d110
1,     176128,     176128,     2048,     8192, 35953826b5e12629e3716a29b9882683
0,        100,        100,        1,   345600, 0ec2636a86e6a5f5b360be8acc1f7978
0,        101,        101,        1,   345600, 6f243a3d7f1e8263ba7ae34ee6a1a09f
1,     178176,     178176,     2048,     8192, 25d13b6488493517cbe49a966b6d1108
0,        102,        102,        1,   345600, d15214c90d1a145dfc06c4f3b2c24bec
1,     180224,     180224,     2048,     8192, 89610437079fcd69f749ed5bff5509ac
0,        103,        103,        1,   345600, 292c9e358976c8ac93e61df5040814dc
1,     182272,     182272,     2048,     8192, e7ba5338363b6443bce215308d115689
0,        104,        104,        1,   345600, a536434dd45643328419b7bf35c60a97
1,     184320,     184320,     2048,     8192, e9273693712ef646b954849e30636224
0,        105,        105,        1,   345600, 6f243a3d7f1e8263ba7ae34ee6a1a09f
1,     186368,     186368,     2048,     8192, ed7b8bc17a8840a3bca7224b96948093
0,        106,        106,        1,   345600, 32f7cf727dcd4a02785deefb9f0ecd84
1,     188416,     188416,     2048,     8192, 43092cd379082fe92f371d52d3d989ca
0,        107,        107,        1,   345600, 9cfe6145f971248a042b6dc490171166
1,     190464,     190464,     2048,     8192, 933b5034c5339e956b62bde0b44edf79
0,        108,        108,        1,   345600, ba5247a164172bc4b608437a7d91f9e1
0,        109,        109,        1,   345600, e79f3124e1f9287914ebb729e09e72c0
1,     192512,     192512,     2048,     8192, b011c634cd6cb71c03216495e752e381
0,        110,        110,        1,   345600, d8d3a5acfa46369c0d33207f14aba6e0
1,     194560,     194560,     2048,     8192, 2e88742326c857e73d4f0cf528bc5d8e
0,        111,        111,        1,   345600, 9cfe6145f971248a042b6dc490171166
1,     196608,     196608,     2048,     8192, 0ca334aa3619ebc6779458977c3a3b7a
0,        112,        112,        1,   345600, d15214c90d1a145dfc06c4f3b2c24bec
1,     198656,     198656,     2048,     8192, 4959e6dbb9d79fd0b8fed5acd136b720
0,        113,        113,        1,   345600, 457f9e7bb1bb9c916c113a526530990c
1,     200704,     200704,     2048,     8192, 1d785e2fc5ab918ba3b56565f3ed2528
0,        114,        114,        1,   345600, 972154b6e73769a9d90b18b63557713f
1,     202752,     202752,     2048,     8192, 9678032fd37dc464f681cbbe73e632fd
0,        115,        115,        1,   345600, e7e0c4d647e48d507641adc8347f449e
0,        116,        116,        1,   345600, ab6565deee537ff4fc3e068a063de522
1,     204800,     204800,     2048,     8192, e07e6c1f47360b064ee3684ebb767b8e
0,        117,        117,        1,   345600, 457f9e7bb1bb9c916c113a526530990c
1,     206848,     206848,     2048,     8192, 764194203cb4f2d946cbce50d3352774
0,        118,        118,        1,   345600, ba5247a164172bc4b608437a7d91f9e1
1,     208896,     208896,     2048,     8192, 5a95361f9a57b647e15a4650c375a775
0,        119,        119,        1,   345600, c358ad975294a127a5a91aa30b301193
1,     210944,     210944,     2048,     8192, 81244a826e1610693df2ad06d7a1197d
0,        120,        120,        1,   345600, 8d895956617a25844f93263f93c40d68
1,     212992,     212992,     2048,     8192, 3bce562dab9432b6420bab8b8c1d0032
0,        121,        121,        1,   345600, 83a55a4afc9f8a385a4f98aeb32d8cda
1,     215040,     215040,     2048,     8192, 846af0148cae206755901645fe19a112
0,        122,        122,        1,   345600, c3f1362061dbe3ee9f2294f5ef56431a
0,        123,        123,        1,   345600, c358ad975294a127a5a91aa30b301193
1,     217088,     217088,     2048,     8192, 42505b83eae566ace96cd39f4319ffe6
0,        124,        124,        1,   345600, 972154b6e73769a9d90b18b63557713f
1,     219136,     219136,     2048,     8192, 8ce0c10e9842634398150b654d612168
0,        125,        125,        1,   345600, 2cdedba06c427daa363318c580b86ca4
1,     221184,     221184,     2048,     8192, d8c90fe6980b9e8b0cdb1629dc68919e
0,        126,        126,        1,   345600, a0364cd4e7c0805856f99f7bdf389cac
1,     223232,     223232,     2048,     8192, 7480da304d0e3b532026d6560577e967
0,        127,        127,        1,   345600, 9bd745ebf03685e2325de6c3653b0fb8
1,     225280,     225280,     2048,     8192, fc4af5c3fe4749703da3e10a263d04f3
0,        128,        128,        1,   345600, f2c9fc1f93152b79d3c3c32299783809
1,     227328,     227328,     2048,     8192, 10f8efa5386bafb3782374aa3138ea92
0,        129,        129,        1,   345600, 2cdedba06c427daa363318c580b86ca4
0,        130,        130,        1,   345600, 8d895956617a25844f93263f93c40d68
1,     229376,     229376,     2048,     8192, de38e99a0df46ca5003a37e7ef6e66cd
0,        131,        131,        1,   345600, 4edb43e1346c29e606044eb68b3fb513
1,     231424,     231424,     2048,     8192, d47a7d92703d4b46b62f66923af20573
0,        132,        132,        1,   345600, b0f80dbda739cb458093bc4b713e423a
1,     233472,     233472,     2048,     8192, 0497dfe02df70faf0ab0bc6ce169489f
0,        133,        133,        1,   345600, a0364cd4e7c0805856f99f7bdf389cac
1,     235520,     235520,     2048,     8192, 71a3f6d3f01078a04aa7d82771480c54
0,        134,        134,        1,   345600, be7af8c527e19e8372cb25bd9dcdbecd
1,     237568,     237568,     2048,     8192, 04c9ed2ece554e2666810387f83e6dc2
0,        135,        135,        1,   345600, 35a6bb3ad1d9cb6580e77167bcb8b9ed
1,     239616,     239616,     2048,     8192, e74d7b4704a04cc97ee9539428d1ed29
0,        136,        136,        1,   345600, 7584ab1d99ad6432a66d73d2de89420b
1,     241664,     241664,     2048,     8192, ec5d851c405d51e3baa8d4c02310ddfe
0,        137,        137,        1,   345600, f0a12bea7630290aee64a732f2abd47f
0,        138,        138,        1,   345600, be7af8c527e19e8372cb25bd9dcdbecd
1,     243712,     243712,     2048,     8192, bcc1f59d468b36a4e806cdb7d145d8f6
0,        139,        139,        1,   345600, eb3b82ea1e5b36e5ed0ffa27979e33a0
1,     245760,     245760,     2048,     8192, 27d38bd978ee15631fd18481fdf84a7a
0,        140,        140,        1,   345600, 2398f2ac952a3ba4f006c5e8944eaf85
1,     247808,     247808,     2048,     8192, 8e484cfefa6316dcb746218dfb1d0a6a
0,        141,        141,        1,   345600, a009e8c85b1049cfa15a7d6e2b104eb4
1,     249856,     249856,     2048,     8192, 0f6f25b22e1003e65386358166975717
0,        142,        142,        1,   345600, 28fd2de193441840fde4b2d53026d67e
1,     251904,     251904,     2048,     8192, a1c8407de4b8b813533af47fa72aea87
0,        143,        143,        1,   345600, dd92e274db206f74e2df18c471c4af41
1,     253952,     253952,     2048,     8192, a32380dd12d627826626114be14250f7
0,        144,        144,        1,   345600, 2398f2ac952a3ba4f006c5e8944eaf85
0,        145,        145,        1,   345600, 35a6bb3ad1d9cb6580e77167bcb8b9ed
1,     256000,     256000,     2048,     8192, 10f0b48a73bf7c8f35702d65cb37c198
0,        146,        146,        1,   345600, 49786a0b6ecf6bdcc14d96cbfd70e5cb
1,     258048,     258048,     2048,     8192, 3ab654f4df18c5decd388f143a6be9eb
0,        147,        147,        1,   345600, 9612bd183da1284cd1ac4d1de1d6f6f7
1,     260096,     260096,     2048,     8192, f05abaefa0683536e58c5879ba773a90
0,        148,        148,        1,   345600, 234e62dff293b58ff9959b6094754aea
1,     262144,     262144,     2048,     8192, fc6b4e5091b57a3c50b10b3779a5f961
0,        149,        149,        1,   345600, 0194408a5a91ed49e87fac12356a9fed
1,     264192,     264192,     2048,     8192, 283b014e092004da99cdb7ebaf841cb3
0,        150,        150,        1,   345600, 49786a0b6ecf6bdcc14d96cbfd70e5cb
1,     266240,     266240,     2048,     8192, 6363b2dd32f6c730d04fe45e11b52265
0,        151,        151,        1,   345600, a009e8c85b1049cfa15a7d6e2b104eb4
0,        152,        152,        1,   345600, f965c828bebb6e3753865500df25198c
1,     268288,     268288,     2048,     8192, 4b84fd67aaff7aac73b333db4d6724fa
0,        153,        153,        1,   345600, 997d5159debd3ed82a7c7949b81971c6
1,     270336,     270336,     2048,     8192, 26e4bbd2b146cb340876115cebe00302
0,        154,        154,        1,   345600, 578e4f91ed4d6f04684a44183eee1b35
1,     272384,     272384,     2048,     8192, 09848d9c00edd6688f33008be771cf9e
0,        155,        155,        1,   345600, 42fa1e24047ab80078b7ff0e9b4ff22a
1,     274432,     274432,     2048,     8192, eb0708296b8d5e6fab18641c2e330327
0,        156,        156,        1,   345600, f965c828bebb6e3753865500df25198c
1,     276480,     276480,     2048,     8192, b09f6161745a4a69369a5df68ad99ece
0,        157,        157,        1,   345600, 9612bd183da1284cd1ac4d1de1d6f6f7
1,     278528,     278528,     2048,     8192, 83cfe8763b7d3db6c9456ae33c1ebe10
0,        158,        158,        1,   345600, 822d4c978942c2d87ac318620f389545
0,        159,        159,        1,   345600, d6fa05ff2acdbf471a6e37096178f8fd
1,     280576,     280576,     2048,     8192, d6ae5e820b891af052a99a5ba0074ba3
0,        160,        160,        1,   345600, f83f90b358907362dd731f68f66600a6
1,     282624,     282624,     2048,     8192, 3041986c39045df126bf8f40988c8cdc
0,        161,        161,        1,   345600, a1deb25011472dbc2142549639679511
1,     284672,     284672,     2048,     8192, 6e7af01e872696edf0a48163dddd7c2b
0,        162,        162,        1,   345600, 822d4c978942c2d87ac318620f389545
1,     286720,     286720,     2048,     8192, a3332a3de43a865cc7c28ccd5c0db033
0,        163,        163,        1,   345600, 997d5159debd3ed82a7c7949b81971c6
1,     288768,     288768,     2048,     8192, 54780a1c29a2731513fa89445b67aaf2
0,        164,        164,        1,   345600, d6fa05ff2acdbf471a6e37096178f8fd
1,     290816,     290816,     2048,     8192, 28bbd57512b6dc606d51620b1818cec1
0,        165,        165,        1,   345600, bb9582afd6f573f667518a2e296a78d0
0,        166,        166,        1,   345600, 51b19982089bb31d2585ff8bb22fbd40
1,     292864,     292864,     2048,     8192, a501d7ce43beadea40487078ee919fef
0,        167,        167,        1,   345600, 70ff4c30fb9ed05bb5821a457e3cffec
1,     294912,     294912,     2048,     8192, e5a0d5e6154d8846a9c7b8cf2b11974a
0,        168,        168,        1,   345600, dff39873d5528b840148554f4728b3ff
1,     296960,     296960,     2048,     8192, fe3f8e525c56fccb69d6d073f5350a76
0,        169,        169,        1,   345600, 9a740e389b22b9b4b641d5419e0293a6
1,     299008,     299008,     2048,     8192, 96740cdcb3a8187b00c2c033d537bbf5
0,        170,        170,        1,   345600, d1bd5edbd082631cff999024d85c4c08
1,     301056,     301056,     2048,     8192, 1bd721476f48a38ac7d166a557d0e1f8
0,        171,        171,        1,   345600, 16ca220263b6ed1671af4d51988b21d4
1,     303104,     303104,     2048,     8192, 733b4ab7b2ff9f970cfa4c6e4b027f4a
0,        172,        172,        1,   345600, 217a00f820a0ca77a6a7a33f21b5cc06
1,     305152,     305152,     2048,     8192, 7678bf637d3cde32a06f732849f620f3
0,        173,        173,        1,   345600, 11f9756e00eb96fcb9bc2620f65665bb
0,        174,        174,        1,   345600, 223d3063b9e2534b2c1ec4b789b23ce5
1,     307200,     307200,     2048,     8192, aa478302ade59ccb6b9d13da0e62a242
0,        175,        175,        1,   345600, 55f5d7e3e2bdc27ae3db48bcc29ea0bb
1,     309248,     309248,     2048,     8192, e4f3d9174d42edd984f6156918674823
0,        176,        176,        1,   345600, 9f30e02cc3e3d9a03177b2318ecf7b8b
1,     311296,     311296,     2048,     8192, 18b42b4e389b913a427d393068fb4c89
0,        177,        177,        1,   345600, f4bd3e92a53076c3745a48e50249518f
1,     313344,     313344,     2048,     8192, f7bb0a964e4c36f6113a502a6d4a50c3
0,        178,        178,        1,   345600, 4fadfe73161887fd47c372f8d0bda9fe
1,     315392,     315392,     2048,     8192, 78800d2fd95ee99a5c4ca26d0f7ea8a8
0,        179,        179,        1,   345600, 3a5f411c34e5afe3450e409c65788315
1,     317440,     317440,     2048,     8192, c721f6f19e37ec52f88f794c8f5fcc71
0,        180,        180,        1,   345600, 44efb4efa67592c5e635b42d1cb9b914
0,        181,        181,        1,   345600, dc9bde0b42d5e5676c366d719e90d0e5
1,     319488,     319488,     2048,     8192, 3e6727e2cbce28f51053ed702f807e92
0,        182,        182,        1,   345600, cf29a233ac550cd5e7137626e52bbcee
1,     321536,     321536,     2048,     8192, c1a6ab22b39e512806b72ae46dba9b8e
0,        183,        183,        1,   345600, dc5c8f6577a046aa99a4acb36e7fd489
1,     323584,     323584,     2048,     8192, 25b9b6ca88897434c43c69b78663372b
0,        184,        184,        1,   345600, e486acec3049b342cd494d327ea4d81e
1,     325632,     325632,     2048,     8192, e55c18437b2ccc3141b7837d1ab06031
0,        185,        185,        1,   345600, d95c7e0fb8845d994c7388c19c05d83c
1,     327680,     327680,     2048,     8192, 9f72ca9b4a6a6dd05c07dc42b114f17f
0,        186,        186,        1,   345600, 504cf28da75fcf7de897d8aad8a8b291
1,     329728,     329728,     2048,     8192, 235c7f5b31aa28959abcb5e53f2a3ad5
0,        187,        187,        1,   345600, 485444d5f550481737dda2bedec792b4
0,        188,        188,        1,   345600, 9f5bab586bbee74aa407311e90aeedb8
1,     331776,     331776,     2048,     8192, b6fe3888bf10f1feb4e2bca96cc8786f
0,        189,        189,        1,   345600, 3e8b8f36857ed487e6d0161770c3e60f
1,     333824,     333824,     2048,     8192, 4154f16c7c63df632e48bf304a1d3633
0,        190,        190,        1,   345600, 51254eb2d8aed0dc4fb59bd45086b3ed
1,     335872,     335872,     2048,     8192, ed9c28d9c4c362e828eb75dd6cfc2632
0,        191,        191,        1,   345600, 3c03512c44e02da3c165451eea3cc3ed
1,     337920,     337920,     2048,     8192, 3a51205f3ca862a7f2459eff501a0887
0,        192,        192,        1,   345600, e0f77ea601d54e02a01e3097a2dfbe30
1,     339968,     339968,     2048,     8192, ba9920260954a365dfeff844906a437a
0,        193,        193,        1,   345600, 349d39fae3d53864476c7d8cfb950afc
1,     342016,     342016,     2048,     8192, 8188797ed22481323819afacdbf6e71f
0,        194,        194,        1,   345600, 89c3c993b9713ffcf2926d083ad8fc0b
0,        195,        195,        1,   345600, 54de7c96820a2ec9aa45c43c1b713480
1,     344064,     344064,     2048,     8192, d4b01cfa2b8c4f3d8bbdb50fe82c66ba
0,        196,        196,        1,   345600, c7375787297592052594d514a213c9c2
1,     346112,     346112,     2048,     8192, 71e5466cd0b98e15f99a9f5f25a08356
0,        197,        197,        1,   345600, 6da82636fa81f098ca7130570a30c6f1
1,     348160,     348160,     2048,     8192, 5f3b9a3df780069a74d16e898aa671f3
0,        198,        198,        1,   345600, a0c12cd53b48d02320abfd7472e97024
1,     350208,     350208,     2048,     8192, 2930a9a5fa2d4afcaf4e962ad4bd3844
0,        199,        199,        1,   345600, 02b4179ee52e6ac11a85ec540de0c1a3
1,     352256,     352256,     2048,     8192, 5f3f9216b61d09cb740c6eae5d963ccd
0,        200,        200,        1,   345600, 300998c316b0ccb320621dec0d020b36
1,     354304,     354304,     2048,     8192, 335d61319997fe1218db30657c8a3ff3
0,        201,        201,        1,   345600, 9e5e90768581d2665b25c52c50a0a9cc
0,        202,        202,        1,   345600, cab4b58d2cb74e07519f28deebbee4b7
1,     356352,     356352,     2048,     8192, 4071076bfe87c0bcc2d3d057cc0b90e8
0,        203,        203,        1,   345600, c9820e5985a7809670317245a00c9a5c
1,     358400,     358400,     2048,     8192, ccaffc25cd478cd28577caf681e504d3
0,        204,        204,        1,   345600, 3e05db93d66d308e13002f018d4b897f
1,     360448,     360448,     2048,     8192, c14187fbb8be0e4a89b5c662e68ae1be
0,        205,        205,        1,   345600, ea35d5b13e89a56ac52415bfb13af227
1,     362496,     362496,     2048,     8192, 2cae78ff6abf9ef16a2a83648085cc85
0,        206,        206,        1,   345600, 22e222048e28b81483e6a64d860bf335
1,     364544,     364544,     2048,     8192, 81b4c0352186480e788597016124d37f
0,        207,        207,        1,   345600, b5edd530e2a6386841c6055c34b52a6a
1,     366592,     366592,     2048,     8192, 3f34ca6397bf4b67d52225897ad80c8e
0,        208,        208,        1,   345600, 886ce6da0e2fb59b446e16e421b1fd3e
1,     368640,     368640,     2048,     8192, 22736f421e6abc4101b9b40c47ac89f3
0,        209,        209,        1,   345600, f07edd086ea77df739b5ac4fcf54db8a
0,        210,        210,        1,   345600, ebca25fb8e9feec44b1cd9938ac59394
1,     370688,     370688,     2048,     8192, 4d24e466c17caea5fef72a951ce3574b
0,        211,        211,        1,   345600, 39f7cf6fd29b333bbedff01d6689d644
1,     372736,     372736,     2048,     8192, f25d16dc635bcf0bfb637e9b5be76f4a
0,        212,        212,        1,   345600, 9813e1424b88045eae40e4cea4b22bb6
1,     374784,     374784,     2048,     8192, 1c5435f0fceb2c0dcc7eb81f5d033b0f
0,        213,        213,        1,   345600, 2d54788d872a4ba7009ae7f832b40831
1,     376832,     376832,     2048,     8192, 6faf823745455499b60ec15ec1ba1c6c
0,        214,        214,        1,   345600, e358abd7a9d15e476e1cc4c1a1300730
1,     378880,     378880,     2048,     8192, a028ff4fed23ee550c082366d18584b6
0,        215,        215,        1,   345600, 8c248f8c75f0b97284e8d7b16a0dcdda
1,     380928,     380928,     2048,     8192, 272cf0d2028f1f7bee0b104cb7d15aa4
0,        216,        216,        1,   345600, dcff072a0b4b379205c63add1f90f125
0,        217,        217,        1,   345600, 204f6a7d8efdda5550aa4d5a061673d1
1,     382976,     382976,     2048,     8192, 38ab90965a1da563e7fb6e6211280978
0,        218,        218,        1,   345600, da5a7f9404788782ebb754817ed3942a
1,     385024,     385024,     2048,     8192, e683d05893b503a24c772c640373e602
0,        219,        219,        1,   345600, 81bff3545eab752d6e1db6f1c11cb4a4
1,     387072,     387072,     2048,     8192, 69d042a32e5dffad4b4b04bb6e9a3141
0,        220,        220,        1,   345600, aa3d7268fd580b3caf33cd35364b74ac
1,     389120,     389120,     2048,     8192, 1a4d36807948c4c89596ea4af7de98c5
0,        221,        221,        1,   345600, 204f6a7d8efdda5550aa4d5a061673d1
1,     391168,     391168,     2048,     8192, d807584ce4d108a277098b2eee3c40b5
0,        222,        222,        1,   345600, 71aa0ae85a94136b8dba83f8c93f139e
1,     393216,     393216,     2048,     8192, e878bcadf2b6130eed2e24da60aae460
0,        223,        223,        1,   345600, 048790ba9725d57a6e6b9f8aac3f8a39
0,        224,        224,        1,   345600, 94e7909544f0b93ab46370358a30fa5e
1,     395264,     395264,     2048,     8192, 37cf4711abfbe613f19e066c53a29313
0,        225,        225,        1,   345600, 8003da85c24bf65afb409b6ea3912f2f
1,     397312,     397312,     2048,     8192, 43c568ea676dd0a99a68306bd91bb057
0,        226,        226,        1,   345600, 852ef53da90b720aa1f913c268a7c057
1,     399360,     399360,     2048,     8192, 5bd9b98cc7d72088e66eac5bd78769fa
0,        227,        227,        1,   345600, 048790ba9725d57a6e6b9f8aac3f8a39
1,     401408,     401408,     2048,     8192, abd294c688d600d6482edd7b9f8ec4ea
0,        228,        228,        1,   345600, da5a7f9404788782ebb754817ed3942a
1,     403456,     403456,     2048,     8192, 1e00ca888fd347802253dba2a82c45a0
0,        229,        229,        1,   345600, 2be55de11306aa96650404bb0b4afbe5
1,     405504,     405504,     2048,     8192, 95c8423b1e474b53da83da855a66950c
0,        230,        230,        1,   345600, 96affc9d8a2e533e1a58bc48533f49a1
0,        231,        231,        1,   345600, cd65d85de4621d74231a336b6b237e3c
1,     407552,     407552,     2048,     8192, d85f630db7d1fb510c041014740eb595
0,        232,        232,        1,   345600, 8d7aacb4e30a97c59cb54f96ab2bd168
1,     409600,     409600,     2048,     8192, 312f7ef337b206d1ff141a747985a671
0,        233,        233,        1,   345600, 2be55de11306aa96650404bb0b4afbe5
1,     411648,     411648,     2048,     8192, fbcefd6bb044fe792e2569bda1dd9c6a
0,        234,        234,        1,   345600, 94e7909544f0b93ab46370358a30fa5e
1,     413696,     413696,     2048,     8192, be6345822aa2c37e0862fad72f666634
0,        235,        235,        1,   345600, 9111e2d927354796a6ee95310362ce1d
1,     415744,     415744,     2048,     8192, 6ca3452389037ed312821de7441a53a0
0,        236,        236,        1,   345600, 1e0e04f2b57d9f3b7dad3ef80da98903
1,     417792,     417792,     2048,     8192, 5e6c2db899a0c92faac0650323a28371
0,        237,        237,        1,   345600, 6f6441d3baffff91a315d4f955ff57ed
0,        238,        238,        1,   345600, 3ec4e174d785e29c517082feaeca10d3
1,     419840,     419840,     2048,     8192, 752df0dcaf9550c963e1cc8bca7c98d5
0,        239,        239,        1,   345600, 9111e2d927354796a6ee95310362ce1d
1,     421888,     421888,     2048,     8192, 48d6ff3f91c5adbd753b5c60b6428f69
0,        240,        240,        1,   345600, 96affc9d8a2e533e1a58bc48533f49a1
1,     423936,     423936,     2048,     8192, a9411f9ae71576f0219326be0ed83160
0,        241,        241,        1,   345600, 928f8d0de804e2270bd45ae5a4f47806
1,     425984,     425984,     2048,     8192, 904efa9176c90db16f9a511a6bb2eeb5
0,        242,        242,        1,   345600, 26399f8eb61190a1341b7e7e78f1cf55
1,     428032,     428032,     2048,     8192, 7b5a24952e5b8b93bab543e248410d9a
0,        243,        243,        1,   345600, 0a950573202d3ac9935907d16ee53c6e
1,     430080,     430080,     2048,     8192, 2e742dc4dc489bb5f99c18694af63400
0,        244,        244,        1,   345600, 0a7a69a084c16e40822a13be12faf9c8
1,     432128,     432128,     2048,     8192, 59082b15ab7e68104eacf56dd7d3b0f8
0,        245,        245,        1,   345600, 928f8d0de804e2270bd45ae5a4f47806
0,        246,        246,        1,   345600, 1e0e04f2b57d9f3b7dad3ef80da98903
1,     434176,     434176,     2048,     8192, f2248147ff59e6d80e6234b9c17de105
0,        247,        247,        1,   345600, 06b7f4359c7e4b1a989f5b645bfd52f1
1,     436224,     436224,     2048,     8192, 2e270e846ab1cccf3b7613621a56c164
0,        248,        248,        1,   345600, 934cc0f0bfd55f851c2c0df5d9787c89
1,     438272,     438272,     2048,     8192, 4b5a44e1de75acf7320b165f2ac8bca9
0,        249,        249,        1,   345600, 644732168942dc1a67b65405b245b7db
1,     440320,     440320,     2048,     8192, 9929959804a7e901ea05823df0a54699
0,        250,        250,        1,   345600, 00ef235c269e13f85d710f9fef8a8e7f
1,     442368,     442368,     2048,     8192, 7fb89129a526e2e55279ad8d441e91f7
0,        251,        251,        1,   345600, 06b7f4359c7e4b1a989f5b645bfd52f1
1,     444416,     444416,     2048,     8192, 8e27562a9bf88bdb4fb478cf34b5e330
0,        252,        252,        1,   345600, 26399f8eb61190a1341b7e7e78f1cf55
0,        253,        253,        1,   345600, ed7cbe940af51e7a557c4e5077f9bc04
1,     446464,     446464,     2048,     8192, 8a29a55cf189b7fe481364692150ee28
0,        254,        254,        1,   345600, 2dae0bf39f12b48596857f549399db56
1,     448512,     448512,     2048,     8192, fdbe28b38aa8882ed53ccc14d3827f99
0,        255,        255,        1,   345600, 08b09b79e73089bb0730484abb84ef1f
1,     450560,     450560,     2048,     8192, e9afc03784c200a7511eb2b9769342a2
0,        256,        256,        1,   345600, ed7296471037bb47c88552d227310384
1,     452608,     452608,     2048,     8192, 45ec216a4d26599b4a18ad7655134402
0,        257,        257,        1,   345600, ed7cbe940af51e7a557c4e5077f9bc04
1,     454656,     454656,     2048,     8192, add3c73a263f3a2061744f0aaa53abb8
0,        258,        258,        1,   345600, 934cc0f0bfd55f851c2c0df5d9787c89
1,     456704,     456704,     2048,     8192, 05986c1c530657322a87f444f897cb21
0,        259,        259,        1,   345600, f272ea2c832355f8b166831456bf129c
0,        260,        260,        1,   345600, 4421832bf067cd071a364c70f80f3e7c
1,     458752,     458752,     2048,     8192, e963bd5a3e88c471eabf6166a8578fc1
0,        261,        261,        1,   345600, b5a059bee9c43bf0c7d7484ac4f491ce
1,     460800,     460800,     2048,     8192, 907e4d19ad42e7d595c8631fa3ae5aee
0,        262,        262,        1,   345600, 13848fb1d6dccffb89633b88c49f7272
1,     462848,     462848,     2048,     8192, 06ec308442751fad0266c455bda4d5b0
0,        263,        263,        1,   345600, f272ea2c832355f8b166831456bf129c
1,     464896,     464896,     2048,     8192, 434c87a5f7ee9c49b9d84349a93c9669
0,        264,        264,        1,   345600, 2dae0bf39f12b48596857f549399db56
1,     466944,     466944,     2048,     8192, f8fce7bcd3ff387303b293e08ed8eccf
0,        265,        265,        1,   345600, 4421832bf067cd071a364c70f80f3e7c
1,     468992,     468992,     2048,     8192, 02ca5d6c782f47c731b749864b645fd5
0,        266,        266,        1,   345600, 28be8ffeb447ecfbcba85d3989814018
0,        267,        267,        1,   345600, 435fee6975000e3fe45264457b7abee7
1,     471040,     471040,     2048,     8192, 975a26a6645ee281194995af4389acd6
0,        268,        268,        1,   345600, 37b9a3b94a0f37e7cdd72c4fb66cd21a
1,     473088,     473088,     2048,     8192, 8414b68589f3752b7677d25e20a70769
0,        269,        269,        1,   345600, 7958bd32d34ad694a2d4d009a6217cdb
1,     475136,     475136,     2048,     8192, 1bd468f4b3f2c1ae840ce2466c229782
0,        270,        270,        1,   345600, 55c054a91c377d54094005aca7d1acff
1,     477184,     477184,     2048,     8192, fca4c48b3ca722cc922e5a127c3848c4
0,        271,        271,        1,   345600, ded6e33fe886cc2e0a922389b40ca510
1,     479232,     479232,     2048,     8192, 3b2bbd809c573a5f5c07a51216fac835
0,        272,        272,        1,   345600, 8aa5bc1b9efc9c0a661a4ee43c11ab18
1,     481280,     481280,     2048,     8192, a34edaea9bad5bd6652ffef960f452f0
0,        273,        273,        1,   345600, 49727ca5a7f63f133c0d59efd4ead69e
1,     483328,     483328,     2048,     8192, 2d515fa01fa3b13b08e89bba14cfbca6
0,        274,        274,        1,   345600, cca8a2cea7b018be9411b0989ec1daff
0,        275,        275,        1,   345600, 21170e1e46009422770149bc4ac61ebc
1,     485376,     485376,     2048,     8192, dbc31605f528e6309539a66d790ca9bb
0,        276,        276,        1,   345600, c3c848dfa945a222553a042d2ff6fa07
1,     487424,     487424,     2048,     8192, 7a4e8d5322acb8d1f293e2f895fb7a3c
0,        277,        277,        1,   345600, 45886425e5ff102947165eb64582a9ff
1,     489472,     489472,     2048,     8192, b5df7f553dfc56f069a1ab7cf8b29fb9
0,        278,        278,        1,   345600, 438755f6b4a07b73c8a2b2616d9179d0
1,     491520,     491520,     2048,     8192, 62e00907244b487aa9c331876f90bffe
0,        279,        279,        1,   345600, 63356caa3c7111a4353c2343b185bb52
1,     493568,     493568,     2048,     8192, 16793949b3f88f238090dfcdc0a052c5
0,        280,        280,        1,   345600, 22be38edcf2b23983bcc73ed7d284c6d
1,     495616,     495616,     2048,     8192, 98aadd8e439bb2a51cdf4171e1b31d63
0,        281,        281,        1,   345600, bceb874a5afdf09b25a7ae290b555ed5
0,        282,        282,        1,   345600, d0e2e72ffa073969438dbfaad03d9ec5
1,     497664,     497664,     2048,     8192, c0d3ba68773c8dd8739338a7f5f43ad8
0,        283,        283,        1,   345600, 9e0e06a2ac35569cff21ffbf03fa6897
1,     499712,     499712,     2048,     8192, 00f075f12c9d1fb2e9440fe9500b308e
0,        284,        284,        1,   345600, 0468aeb07eed86df60b0a6053ea3ad20
1,     501760,     501760,     2048,     8192, 9628425cbde16b2976af74c612f0fc9b
0,        285,        285,        1,   345600, 0512dc79882f842b09a6c17e2061e737
1,     503808,     503808,     2048,     8192, a08544ab0c4b953de0de286fd2633e91
0,        286,        286,        1,   345600, dcba5264fdc674b9e69c8057cdf8c66f
1,     505856,     505856,     2048,     8192, c6861103312a59e7da8de28f6c31718b
0,        287,        287,        1,   345600, 530953a1959192af5149e88bcbc7ecea
1,     507904,     507904,     2048,     8192, b0427528a815cff6d76fba33acc39c7d
0,        288,        288,        1,   345600, db7912e3cf18213f9a2f68da8fbd647b
0,        289,        289,        1,   345600, 2ad4eee1c128368359b7e1a6415be364
1,     509952,     509952,     2048,     8192, 77f967df8b23e076873e8f0a30aae7f1
0,        290,        290,        1,   345600, 335ca70de125cb64dc8724070279e535
1,     512000,     512000,     2048,     8192, 2ecfb67b1075380f39f125d4bce7ac63
0,        291,        291,        1,   345600, 395cc192e61b03fbd0ee4a443b5e1f6b
1,     514048,     514048,     2048,     8192, cf66b2b80674e34062057317bc7ba327
0,        292,        292,        1,   345600, c9ebaed2285e3d5357554e2f9d3b13a6
1,     516096,     516096,     2048,     8192, 2e1f1a4ef0a2a918f069ef99a958e7c5
0,        293,        293,        1,   345600, 9a768e6cf2bb597dcdadad2282b76ada
1,     518144,     518144,     2048,     8192, f223cdef8e89962860d2f61f182506a1
0,        294,        294,        1,   345600, 7e280a25c1146518044111e5f2b51b72
1,     520192,     520192,     2048,     8192, c62db90076a7e1d2623c216bdd1849d7
0,        295,        295,        1,   345600, 530953a1959192af5149e88bcbc7ecea
0,        296,        296,        1,   345600, cc8fba695d36c0d12e093dd5d6641bf4
1,     522240,     522240,     2048,     8192, 66f1f2f20e9eaca0f008f4fa0a821ef6
0,        297,        297,        1,   345600, a2ec7b4f86fcef7d0bb08f22604df34c
1,     524288,     524288,     2048,     8192, cb397b0fe262bf30bfd3ce6c00156d04
0,        298,        298,        1,   345600, 9496fe732fd0f20aeab270ec8ff93cdd
1,     526336,     526336,     2048,     8192, 3c6754561bc8fc8dc664fd39f31fe78e
0,        299,        299,        1,   345600, 965c4f09f076a2f324153e641a15e3aa
1,     528384,     528384,     2048,     8192, 20341ea98d7c308d16b6bb557b5ac778
0,        300,        300,        1,   345600, d0f7dc9ed46e01fa1b4528d179cec5f5
1,     530432,     530432,     2048,     8192, 4309e110919cf94b3214cab3f63b6646
0,        301,        301,        1,   345600, 656472d65199b89a278eb55e19a0171e
1,     532480,     532480,     2048,     8192, 09f7db0a6b1ecfef7dfa73ef97811f85
0,        302,        302,        1,   345600, 0c1b4bb3b44b7db96953d4807a696695
0,        303,        303,        1,   345600, e01dfe12bf9dd57ed6a4b411eb2d6f38
1,     534528,     534528,     2048,     8192, 124a5497640d2d5565531ed3c6466990
0,        304,        304,        1,   345600, ab81a7a589cd7f2a0b95b0294091a258
1,     536576,     536576,     2048,     8192, 1003918f80585e26fbc94ebbf172f5b9
0,        305,        305,        1,   345600, 42349068717d5d3c38da6ad22455b7b5
1,     538624,     538624,     2048,     8192, cd0f32b9c5c0d86978c659af9660b7fb
0,        306,        306,        1,   345600, bd44f56127dd4d88b6a5b563a557e9a6
1,     540672,     540672,     2048,     8192, d6a3c7b1b3b8d0854c1952ae57310100
0,        307,        307,        1,   345600, c69e23c5632761162c156a6425900a88
1,     542720,     542720,     2048,     8192, ab61a54fb9e606cdacc0dce38e2ac090
0,        308,        308,        1,   345600, 38e728683102eba499fd69dbdb002289
1,     544768,     544768,     2048,     8192, 48ce908ac36c37f1069e1b68a6b15d2c
0,        309,        309,        1,   345600, d35e80db5d42620db1bd554f5a601a44
1,     546816,     546816,     2048,     8192, 7a83b18528569de3ec21635dec58f1ee
0,        310,        310,        1,   345600, edbafc6b7dce9c856b8120c1beae6cdf
0,        311,        311,        1,   345600, 25e352cbce98a9e72a649f10fc5d55bd
1,     548864,     548864,     2048,     8192, 4ba5e282c507077008ea7614ea778ed3
0,        312,        312,        1,   345600, ab81a7a589cd7f2a0b95b0294091a258
1,     550912,     550912,     2048,     8192, 95f6883ad92e44d8eae2e60cbc1a5be3
0,        313,        313,        1,   345600, b5ddf86829ed00eb3fc89d122fb94b00
1,     552960,     552960,     2048,     8192, 58fda61a4002790ca2b187bfa5e13ce3
0,        314,        314,        1,   345600, d2c5c6366ecd3c6580caf5a6c883321c
1,     555008,     555008,     2048,     8192, 79002dbc9fde345f4846687cd02bc7e0
0,        315,        315,        1,   345600, 30893de19755bdaca68ab8ba908c1542
1,     557056,     557056,     2048,     8192, df7a48119334690d6adf73e1f02cf3bd
0,        316,        316,        1,   345600, 23661e90c8f02ec32719502a8df079ef
1,     559104,     559104,     2048,     8192, d0c8a237da131669dccab533a6d0d296
0,        317,        317,        1,   345600, b5ddf86829ed00eb3fc89d122fb94b00
0,        318,        318,        1,   345600, d2c5c6366ecd3c6580caf5a6c883321c
1,     561152,     561152,     2048,     8192, dccc6638280653a8c88f8da636ead67d
0,        319,        319,        1,   345600, b97da59a26128461a93818363e463950
1,     563200,     563200,     2048,     8192, 5a60657854f22a41d237bc31427e4985
0,        320,        320,        1,   345600, 30893de19755bdaca68ab8ba908c1542
1,     565248,     565248,     2048,     8192, 7e2145e8c29578dcccb9da954d8feb32
0,        321,        321,        1,   345600, 908af4038fa9486f91e5292885ad080f
1,     567296,     567296,     2048,     8192, 2cb5a77d3a7d81c8c572a5a2e7a57768
0,        322,        322,        1,   345600, bd0a465e3cce95b6b35e1570ab88cfb0
1,     569344,     569344,     2048,     8192, b9a468fda07185c9e70d7ffbca0eb273
0,        323,        323,        1,   345600, 8c275e2e4c7796e394e174f7dd699ab7
1,     571392,     571392,     2048,     8192, 0c346082d32a1167d4a22ac1058be0e6
0,        324,        324,        1,   345600, 1bd5e3bb849cef078bed351f82a7082d
0,        325,        325,        1,   345600, eb09ce053f2e7d91e64e9e938211b7a5
1,     573440,     573440,     2048,     8192, 8bb91dcc92f4fea7f39992dfc1431155
0,        326,        326,        1,   345600, 575c890444e9ad6ac3dde36793387931
1,     575488,     575488,     2048,     8192, 217b78c8b659e2e3cf7fa35527e036e3
0,        327,        327,        1,   345600, fe3e2e853b004d55a656211eae7654dc
1,     577536,     577536,     2048,     8192, 9ea23ee5b5de90cb165b794dcf82d8ad
0,        328,        328,        1,   345600, 77ff8f4d1c6a88e78a892aa22f7899f3
1,     579584,     579584,     2048,     8192, b4a3fcaacb2b8f367ef32c1fa52eccad
0,        329,        329,        1,   345600, 4f462ea189b71ebb0b54ca51bf71959b
1,     581632,     581632,     2048,     8192, f3423cd006c8db483cc90b9f673b11ef
0,        330,        330,        1,   345600, 500389e12f854f4e6b455cb6ec92703b
1,     583680,     583680,     2048,     8192, d9518591aabe318c3c77c67567e39439
0,        331,        331,        1,   345600, 879a2752c5117d58b20a00e162cfb3d7
0,        332,        332,        1,   345600, 77ff8f4d1c6a88e78a892aa22f7899f3
1,     585728,     585728,     2048,     8192, ebe382eb48964e7bced1928c5d1fbe9f
0,        333,        333,        1,   345600, dfac0e900ab80dc732ae4b9fee54bb44
1,     587776,     587776,     2048,     8192, 3a7a53046bdf8223dfd4c899ba43999a
0,        334,        334,        1,   345600, 9ef44ab46c36e84b755af48b966aa334
1,     589824,     589824,     2048,     8192, 77a97d33578e8400f98a3fad6e9882f0
0,        335,        335,        1,   345600, cdcb218f0e040a119b97b2e26d93d1ff
1,     591872,     591872,     2048,     8192, 850ae770e6915ff9c2538ad0a61c5196
0,        336,        336,        1,   345600, 84ec25e15f0669a649d81b979a21c488
1,     593920,     593920,     2048,     8192, 9ee7e0096ed24a326ef2a9c1318228c8
0,        337,        337,        1,   345600, c891771473e59a73d77b2f6b008daed2
1,     595968,     595968,     2048,     8192, cd63b08ebd8eb84399dd82d31033ebb7
0,        338,        338,        1,   345600, 9ef44ab46c36e84b755af48b966aa334
0,        339,        339,        1,   345600, ebbf93c320e87d8d67202706dc5818fd
1,     598016,     598016,     2048,     8192, 781e96aaef4e7e6d5572a661f080c391
0,        340,        340,        1,   345600, 610d0a1268f6fc399362f74adfe0ac3e
1,     600064,     600064,     2048,     8192, b1b3ebf76f62c9ef25c0ee6636fcd6ab
0,        341,        341,        1,   345600, 4b19f09c27550fadd3f74ab140b7f14e
1,     602112,     602112,     2048,     8192, 73136c970426dadbf42aceb9495ea14e
0,        342,        342,        1,   345600, 6bf5df541c2de63a76ebcb7503ea53b6
1,     604160,     604160,     2048,     8192, 1ad4c025ffa90ec506a5e7b7f0fa64e5
0,        343,        343,        1,   345600, 460b7b0458d76d39b46b96be72476085
1,     606208,     606208,     2048,     8192, 5ce95dddb4d26d269af05d2213a43af8
0,        344,        344,        1,   345600, 610d0a1268f6fc399362f74adfe0ac3e
1,     608256,     608256,     2048,     8192, 07d1eb22bbbce4209339284f74049165
0,        345,        345,        1,   345600, b03871a583a8bc3e0f8abf461bf0eab2
1,     610304,     610304,     2048,     8192, 0249c904bda57f46920e3615ec745d61
0,        346,        346,        1,   345600, 91015d756e4d5307af7a385215b5d48d
0,        347,        347,        1,   345600, c12163e4734d39271d938c8ca3b9377b
1,     612352,     612352,     2048,     8192, 62503f5bd5bd8e9308bf561358c684f9
0,        348,        348,        1,   345600, 4fa197d4f90a016eb0eda0434e3c4189
1,     614400,     614400,     2048,     8192, f045f7df018906fbb64b3f36df3ff402
0,        349,        349,        1,   345600, 3fde29256679d2321c42537e63202c04
1,     616448,     616448,     2048,     8192, 9a2bde47c06544343d7c619ab73e03bf
0,        350,        350,        1,   345600, 91015d756e4d5307af7a385215b5d48d
1,     618496,     618496,     2048,     8192, f2cd9e8fa4e59f459e850fb95bef5859
0,        351,        351,        1,   345600, 4b19f09c27550fadd3f74ab140b7f14e
1,     620544,     620544,     2048,     8192, 12636795c076e4b16e7e2b532f32ae1b
0,        352,        352,        1,   345600, 00a764c7eb7090ab2f88976fae010b72
1,     622592,     622592,     2048,     8192, 87cea049edcec507fd2124271ca9766c
0,        353,        353,        1,   345600, af7d9752f094ae673ccc598ac47ca82a
0,        354,        354,        1,   345600, 337aa4306d1bba8a73fcf89ac710a57c
1,     624640,     624640,     2048,     8192, 5e303515262e3893e24301d79f328432
0,        355,        355,        1,   345600, c8abead3d8996a03d5eb4686efd2006f
1,     626688,     626688,     2048,     8192, 70a6a04162477ac8d6662b7fc48be945
0,        356,        356,        1,   345600, 00a764c7eb7090ab2f88976fae010b72
1,     628736,     628736,     2048,     8192, bc8caa46c00746df00bd8f7876db6090
0,        357,        357,        1,   345600, c12163e4734d39271d938c8ca3b9377b
1,     630784,     630784,     2048,     8192, 2d8c989a27c3b02fb3a0d44d8ba031fe
0,        358,        358,        1,   345600, 934bccb2d8f4b2628cbe08068f898726
1,     632832,     632832,     2048,     8192, 9ad8618390daf005af40965fb2150fec
0,        359,        359,        1,   345600, 632e9409b90f3a06c23101fc8b610def
1,     634880,     634880,     2048,     8192, 33804a19794f738d59db05a1e6de51f7
0,        360,        360,        1,   345600, e57a75912aee115e4903eceb59843626
0,        361,        361,        1,   345600, a87114a9c09c4aacf4b2205864d46106
1,     636928,     636928,     2048,     8192, e2e9fdca2dd3e912e31a13ffb6d85a40
0,        362,        362,        1,   345600, af7d9752f094ae673ccc598ac47ca82a
1,     638976,     638976,     2048,     8192, 7c6c72b73a3c87f0e451599739ddac6c
0,        363,        363,        1,   345600, 892a8cb9a83ae1f004c9ef2210427bb2
1,     641024,     641024,     2048,     8192, 26ad067ecf26abd8b75c723ca2fc5918
0,        364,        364,        1,   345600, 984b600bbc1878c9c6b4261b316f5ab4
1,     643072,     643072,     2048,     8192, 4dd991b3729168c6a1dd4bfe2a511abd
0,        365,        365,        1,   345600, 435dd0d3999b388659ec5b91d855eb4b
1,     645120,     645120,     2048,     8192, be290a97dab1e375fa5c8a66add4c39f
0,        366,        366,        1,   345600, 0e9dc46938f469a343e81e06b8e341b2
1,     647168,     647168,     2048,     8192, 7503049b64ead9b4dd84b6d8f0cc670c
0,        367,        367,        1,   345600, 950c4499b58628b65a4384598a7a424c
0,        368,        368,        1,   345600, 5a43f06ecc76f443e44d30a1b890171f
1,     649216,     649216,     2048,     8192, 7bf58abdb4cdb95f3b69e0e4247dd5b2
0,        369,        369,        1,   345600, 494107ef0687f9881dcbbd420ae8b6d9
1,     651264,     651264,     2048,     8192, 6814ebaa1edac9981e3f2160d18ab692
0,        370,        370,        1,   345600, 7ac31d394f9fc390b2f7e567fbd7b220
1,     653312,     653312,     2048,     8192, f6eead0054d9a3bb08b055103c78eeef
0,        371,        371,        1,   345600, 618afe5de6a8b578fa28189e6fd2e700
1,     655360,     655360,     2048,     8192, 3c43ce8a6a756c340aeaca69c07fa422
0,        372,        372,        1,   345600, ac71da17a249d80ba0959842f3cdee05
1,     657408,     657408,     2048,     8192, 55814a9c760b9aae4692ae471fe152d2
0,        373,        373,        1,   345600, 1b5581998af0eeeadffc44e31329d2cf
1,     659456,     659456,     2048,     8192, d13785ab2ecb97a89b74c7fe67cfc0b5
0,        374,        374,        1,   345600, 94f0ea7500aca66966248b9c60af850e
0,        375,        375,        1,   345600, a4c78839a54f8fcd5a2318b665795913
1,     661504,     661504,     2048,     8192, b8fb5eda0469a121123b9b79e7f4fa46
0,        376,        376,        1,   345600, d7ef51652bf2655353bceada6b7ebfc6
1,     663552,     663552,     2048,     8192, ce29963a59bd6ee194a861f6c5407a6c
0,        377,        377,        1,   345600, aff2d90ce886b4152963b4c7832ebdda
1,     665600,     665600,     2048,     8192, 3c12a9fa69df340a9e0f01e2437a293c
0,        378,        378,        1,   345600, 507429b3537ddf7d61595d6b632bff6a
1,     667648,     667648,     2048,     8192, e003f726627ad0088927ee5b0496d977
0,        379,        379,        1,   345600, cbbfe8fd0cc653c9bb877f8605a24f31
1,     669696,     669696,     2048,     8192, 7c85d7129ffc152db2781e1061f19903
0,        380,        380,        1,   345600, eab7cf7cab2b8b8e78e4b260b4aae46c
1,     671744,     671744,     2048,     8192, 9641cfc72b026dadefef31ea4e3c2c9c
0,        381,        381,        1,   345600, 581410d3635099471621337177c70a1d
1,     673792,     673792,     2048,     8192, f22f196319ea27ce0108924298a1b362
0,        382,        382,        1,   345600, 14eb9025308d1d59f4335148571e42b6
0,        383,        383,        1,   345600, c2b786e5144eafad0273ee621fd69016
1,     675840,     675840,     2048,     8192, 546d821ef6d98c0e58190fed2d7a8522
0,        384,        384,        1,   345600, d1478cc92db32da959be098c415402f1
1,     677888,     677888,     2048,     8192, 9dc35c5f4fb85ad8eedf01712e2e73a0
0,        385,        385,        1,   345600, 12d9ee79fe98dc67bd75b81b9ab58ac2
1,     679936,     679936,     2048,     8192, 323ceb5bce9eda2fd6f94b0cb5f3c015
0,        386,        386,        1,   345600, c491c714743924b6c281b34ce550fc28
1,     681984,     681984,     2048,     8192, 122601e1defc2aa3ecda76bfa27f53b8
0,        387,        387,        1,   345600, 537eb43acace1db372b4c7402fdfcc6f
1,     684032,     684032,     2048,     8192, 5924b0c8a0495dd6ebb43da6647771ac
0,        388,        388,        1,   345600, 77475562381bb2d79d9c44c395f52c19
1,     686080,     686080,     2048,     8192, fe59efd7214236effe7aaac386ccfc2f
0,        389,        389,        1,   345600, b7446e34adc947cf36256a968c3c6f6e
0,        390,        390,        1,   345600, 40906a87308407935457873fc4df5ca2
1,     688128,     688128,     2048,     8192, dc7c2058e7f3c9a4ee9aa78e67ed9778
0,        391,        391,        1,   345600, 287d800a6da928d68ea0b6d7229c1278
1,     690176,     690176,     2048,     8192, 02d7e21ffd5c9f58a781beb73684e254
0,        392,        392,        1,   345600, 3940ceb35417761e6564267e4611585e
1,     692224,     692224,     2048,     8192, 1f1568473fda0f5a260b5201c4fd710a
0,        393,        393,        1,   345600, a9ab1227689a3c0014828227ffaaa110
1,     694272,     694272,     2048,     8192, 3db4ec8490778c277e2698749f48a086
0,        394,        394,        1,   345600, cc8bdca5c55480c3b2232539a65f8c44
1,     696320,     696320,     2048,     8192, b4101ea944314f4aef7af036c923eb63
0,        395,        395,        1,   345600, 06795a2001c9a6c3d6d9e8945c79421c
1,     698368,     698368,     2048,     8192, 96486593d72c2bf81501eb834cdb0ab3
0,        396,        396,        1,   345600, 3281c700a6cfe3790775b337fcb2fa1c
0,        397,        397,        1,   345600, d981a5f23d54df21648854452ffd4c4d
1,     700416,     700416,     2048,     8192, 54c0dd47e77405ff29f2ee25a48c8346
0,        398,        398,        1,   345600, c0310094d4f7737a23b2d483eb1bcab2
1,     702464,     702464,     2048,     8192, 09ac6bb4a2ac620f78688c5d83fb1435
0,        399,        399,        1,   345600, 817deea73353c9169e47bdee061a3aec
1,     704512,     704512,     2048,     8192, bda1b6b050775467b6e996f48cb86f3a
0,        400,        400,        1,   345600, 8cde38720da525c158c75d364b03a8ed
1,     706560,     706560,     2048,     8192, b5ae8e799519dfd6eafcb372b98cc883
0,        401,        401,        1,   345600, 07a4ea64c81ef35537082e7a8bb10df9
1,     708608,     708608,     2048,     8192, 879c532e3dd42f97b5a1bc1248ff8769
0,        402,        402,        1,   345600, c0310094d4f7737a23b2d483eb1bcab2
1,     710656,     710656,     2048,     8192, 923a740f7865cb359768da9a7789bc0b
0,        403,        403,        1,   345600, a9ab1227689a3c0014828227ffaaa110
0,        404,        404,        1,   345600, e2a3796fa0b76066d3c5f10e50b25225
1,     712704,     712704,     2048,     8192, 6d9788d51a407dced9edb8e93fcabcad
0,        405,        405,        1,   345600, 1dfcbb2e8965a57eec59dd9b736ba4ee
1,     714752,     714752,     2048,     8192, 58b79f160f971dffadddfcd7f5e6bec3
0,        406,        406,        1,   345600, b44537baa2077c1f0f1fe78d233a8a7d
1,     716800,     716800,     2048,     8192, fd7358a6a1c9c239a063374357f8457b
0,        407,        407,        1,   345600, 4a42a3f355be81aee77627199e8bd21a
1,     718848,     718848,     2048,     8192, 3cc4502e537493bbf96bdad8e0287a47
0,        408,        408,        1,   345600, e2a3796fa0b76066d3c5f10e50b25225
1,     720896,     720896,     2048,     8192, 69a590352a0b0c367317cc602f63fe9e
0,        409,        409,        1,   345600, 817deea73353c9169e47bdee061a3aec
1,     722944,     722944,     2048,     8192, dc33a1788ed8d7dedacd45901329aef2
0,        410,        410,        1,   345600, bc6743ad6c023951d030dcbceaa2d5cc
1,     724992,     724992,     2048,     8192, 038273fd7bfa317433f0922941949241
0,        411,        411,        1,   345600, 66704834f614707ee2d81f6194b35017
0,        412,        412,        1,   345600, 252dd71ef09549ffeebf2f15cd9e0986
1,     727040,     727040,     2048,     8192, 7e6dfd09d71a46af93b96b5b6ef93414
0,        413,        413,        1,   345600, 1414c854554a2e9768b0a7460f8ca608
1,     729088,     729088,     2048,     8192, bcd0a7119b2b7e4414dc065337cb60fe
0,        414,        414,        1,   345600, 1dfcbb2e8965a57eec59dd9b736ba4ee
1,     731136,     731136,     2048,     8192, 67cbfc50e92f4eafc64b5917b42b9ff1
0,        415,        415,        1,   345600, 6b6a7f3e34905b4773cda4137175f659
1,     733184,     733184,     2048,     8192, 479c51871b6a61ac594b2642d2d2439f
0,        416,        416,        1,   345600, a03085de8b62cf4b77e4e93a78d204e5
1,     735232,     735232,     2048,     8192, ee5defaf09957689d7504815ecb5cdf0
0,        417,        417,        1,   345600, eda5de9a4a31268eb0ca352828c4c05c
1,     737280,     737280,     2048,     8192, c756a05314e150099948e25c40ecd64c
0,        418,        418,        1,   345600, 89d39bf891f73f176799e29f15df278f
0,        419,        419,        1,   345600, 6b6a7f3e34905b4773cda4137175f659
1,     739328,     739328,     2048,     8192, 1a9fcaa37849e7e381f337051b2097ed
0,        420,        420,        1,   345600, bc6743ad6c023951d030dcbceaa2d5cc
1,     741376,     741376,     2048,     8192, d53ca6d7104ad71c34981018a33e0492
0,        421,        421,        1,   345600, 9139741a31737a4ea7e515938694da03
1,     743424,     743424,     2048,     8192, 9d8846b9d51dd421fe2e6e8ad95cc210
0,        422,        422,        1,   345600, 4591d009cf6fab9cf11e05dbb7ca53af
1,     745472,     745472,     2048,     8192, 5770efafe568c9e8f19b607ee7c9ab19
0,        423,        423,        1,   345600, a03085de8b62cf4b77e4e93a78d204e5
1,     747520,     747520,     2048,     8192, 80b3e72a9f720829e4d10092fcf51507
0,        424,        424,        1,   345600, 937a6771ae297cfc0f7f0143b8e1e0f4
1,     749568,     749568,     2048,     8192, 520c6e7a6c5a621ff43b9072488cb609
0,        425,        425,        1,   345600, 41a8313bd066848c13f48e6fc66dc3e6
0,        426,        426,        1,   345600, 098c5a3247ec3152528a0dc0c2da8b0d
1,     751616,     751616,     2048,     8192, bce2869f40310e7cd6e880cfca42f2ff
0,        427,        427,        1,   345600, 7675dd517b8158e5156a604099b26bbe
1,     753664,     753664,     2048,     8192, a18173265272d2f36a34cdb16bc9c07c
0,        428,        428,        1,   345600, 7d33b0c38694720ca58d0f373ef9a08b
1,     755712,     755712,     2048,     8192, 8daf18ecdf8e30c850422e786ee50e6f
0,        429,        429,        1,   345600, 3840831981f8e7dc985b4455c6f6212f
1,     757760,     757760,     2048,     8192, e9411f6f6094b7179cad24f14cdf46ff
0,        430,        430,        1,   345600, 209c214a4d25740599a54028af705634
1,     759808,     759808,     2048,     8192, d9fa4d4ca883c523caa52c9baec66299
0,        431,        431,        1,   345600, c55b57ec625275129f5ff985be559f5d
1,     761856,     761856,     2048,     8192, 06d5162f8b2bf1742d13056f0c11a399
0,        432,        432,        1,   345600, b98791b039bc7b6d3840cc57b3046eed
0,        433,        433,        1,   345600, a9450159f9a2106827b35e97cda77d8b
1,     763904,     763904,     2048,     8192, a8266f4832b8b84e5d850ad75e35f3e6
0,        434,        434,        1,   345600, 969ae2205c10c315797717d06f9e238f
1,     765952,     765952,     2048,     8192, 819d3bfd8df4ae4b7bb62741d3364308
0,        435,        435,        1,   345600, c55b57ec625275129f5ff985be559f5d
1,     768000,     768000,     2048,     8192, bf16de289115d26bb5f2bd5721635836
0,        436,        436,        1,   345600, e43cc35101c7f9e40f627d89b2640281
1,     770048,     770048,     2048,     8192, 91a60607cc0924e6de4822da082a3e49
0,        437,        437,        1,   345600, 07a788b43373da88b3697ee4b2387dd3
1,     772096,     772096,     2048,     8192, f324b2be0f7541ebddbc9a2461b43713
0,        438,        438,        1,   345600, fe7675eb77cf4332c635676fa89d89eb
1,     774144,     774144,     2048,     8192, 28f8f6ca95d81ee8189c4e677f590079
0,        439,        439,        1,   345600, 6bf129557ce293b2294c59dbf923292c
0,        440,        440,        1,   345600, 4d863dcf9cb8b5b445a5d1f4dde66603
1,     776192,     776192,     2048,     8192, 52023649e3028cce1ea1609821d1e10c
0,        441,        441,        1,   345600, 07a788b43373da88b3697ee4b2387dd3
1,     778240,     778240,     2048,     8192, 2e8f31d1a070634364793311f511886d
0,        442,        442,        1,   345600, b98791b039bc7b6d3840cc57b3046eed
1,     780288,     780288,     2048,     8192, 32d00e998284ba0f62dc6f732eb573da
0,        443,        443,        1,   345600, 024fcf8e15ae0c6e8e01604790ddfefd
1,     782336,     782336,     2048,     8192, 06133733e1cee8751e612b43d954f49b
0,        444,        444,        1,   345600, d1349286eada261960fc4eab517b8b14
1,     784384,     784384,     2048,     8192, db33fc8b8fc83966636e4bf84fa0a146
0,        445,        445,        1,   345600, cb5191f94707d84b38144f35070d03ce
1,     786432,     786432,     2048,     8192, 5139ff55f2fc7a54789899a3b171f12e
0,        446,        446,        1,   345600, bf6c3a055256707c3721c8e0a0ab0042
1,     788480,     788480,     2048,     8192, 67289ffa4008367b2c8bdf24e9c301e6
0,        447,        447,        1,   345600, 024fcf8e15ae0c6e8e01604790ddfefd
0,        448,        448,        1,   345600, fe7675eb77cf4332c635676fa89d89eb
1,     790528,     790528,     2048,     8192, b8cec1fea311005a5da46d58c30b1a71
0,        449,        449,        1,   345600, fba66be5df07fd5d2e64bd972b59a0ec
1,     792576,     792576,     2048,     8192, 742956c06c5e1f9a3f11612e02099bac
0,        450,        450,        1,   345600, 3e054d8a1515848992f481b3efebe9e5
1,     794624,     794624,     2048,     8192, 6f09aef20c8587089994d001ec148d19
0,        451,        451,        1,   345600, b7f0a12de65a98d5d75b3bcd788245bc
1,     796672,     796672,     2048,     8192, 657cc8bcd3a9a356b51c3e2eb1793222
0,        452,        452,        1,   345600, 6cdd3cb1d8346a514868d8926e57ee47
1,     798720,     798720,     2048,     8192, 40f13157a788ff141ee7fdbe3143e853
0,        453,        453,        1,   345600, fba66be5df07fd5d2e64bd972b59a0ec
1,     800768,     800768,     2048,     8192, 091430bd74a1aa7e78349834b7eee973
0,        454,        454,        1,   345600, d1349286eada261960fc4eab517b8b14
0,        455,        455,        1,   345600, 8b8fe85486e5d0cbc94c234e034cec4e
1,     802816,     802816,     2048,     8192, 3fd4ddb0d369583ebb2141a438490d43
0,        456,        456,        1,   345600, ea043ab4e87d41405c7be2d4381e477e
1,     804864,     804864,     2048,     8192, 741172cb832b9a9eb74dc1c2b1016f38
0,        457,        457,        1,   345600, 04e8f7c1ead81c83cd2318c5414cae7d
1,     806912,     806912,     2048,     8192, fd203b1a52bff602e6fd83532550fea4
0,        458,        458,        1,   345600, 9785982e92f3ba7ec68a2113223a6649
1,     808960,     808960,     2048,     8192, b64072f1526e8ea2370bf0a5c6bfb205
0,        459,        459,        1,   345600, c64f93fb2e6d5540033f2e05aba07217
1,     811008,     811008,     2048,     8192, 8cb765580e7cb84203846142a659d836
0,        460,        460,        1,   345600, 5813eaed539f10b9120af48ed511cf56
1,     813056,     813056,     2048,     8192, 3102712e1642f25407ce30f5011865ce
0,        461,        461,        1,   345600, 1851fba3693fa9f87cd612dfb2ad86b6
0,        462,        462,        1,   345600, 4e0fe33a5b00c8b9a62d8f1f4803fa25
1,     815104,     815104,     2048,     8192, cdbed15812efb2dc5e2d6dc37a7dbe4e
0,        463,        463,        1,   345600, 56e62e15b2d02cdfe32510b7d1300561
1,     817152,     817152,     2048,     8192, c0e93b9a135124685c76c82386630998
0,        464,        464,        1,   345600, 3dc7d70a25e53d8cfd4ec87ad7f370a1
1,     819200,     819200,     2048,     8192, 258a9afae5a8ad51133cffb837298de6
0,        465,        465,        1,   345600, 1851fba3693fa9f87cd612dfb2ad86b6
1,     821248,     821248,     2048,     8192, 7d40c952ae54662661d52aef19e8e776
0,        466,        466,        1,   345600, e554a134c65f772e1a2a10d970f0b18a
1,     823296,     823296,     2048,     8192, 04be6a43da8e5c017b0859ae512d5ae2
0,        467,        467,        1,   345600, 99b27cd6fd1457dd6954ba7ff60b10d1
1,     825344,     825344,     2048,     8192, 4b23dca35f1edbab198eb45fee6c5b55
0,        468,        468,        1,   345600, beb89da5f17feb5895d2389251a9d7f3
0,        469,        469,        1,   345600, 32f859d102e86284f66cff5334c9be69
1,     827392,     827392,     2048,     8192, 7bb041b41d5ac047aba11ea295709a1d
0,        470,        470,        1,   345600, 78f2df73004c059467a08ba3565b96fa
1,     829440,     829440,     2048,     8192, ce1dee381346cd6872f6de7187876f75
0,        471,        471,        1,   345600, 68f6f9624eb6eb14ff74af995fc2952b
1,     831488,     831488,     2048,     8192, 42e0a4461d3327417b8c0a723b5f9207
0,        472,        472,        1,   345600, 1327bccaf1aee23892046afca6833788
1,     833536,     833536,     2048,     8192, b35164520e77e598940901a49de7516b
0,        473,        473,        1,   345600, db4eba2ae7f01848d3c539e41f1ed8bc
1,     835584,     835584,     2048,     8192, 9154680b03185e1cbc5241b3c0e0f001
0,        474,        474,        1,   345600, 780eec13085ac5994601ddff41bf960c
1,     837632,     837632,     2048,     8192, 82cf222c901976ebe21e76a8035b802b
0,        475,        475,        1,   345600, f114d748d377bbfafc30ec6232c77ed3
0,        476,        476,        1,   345600, 540c6350bc06a86dddcdea10c2ed8bbf
1,     839680,     839680,     2048,     8192, 77a56dd0b5f2d30bf34480ae0c3e8b99
0,        477,        477,        1,   345600, db4eba2ae7f01848d3c539e41f1ed8bc
1,     841728,     841728,     2048,     8192, 01f1635b9e339ee835f64871d8474869
0,        478,        478,        1,   345600, 30bd756380dc44dcfeab58457dd50f91
1,     843776,     843776,     2048,     8192, 67c2f674efea78376a90f252ce3576ed
0,        479,        479,        1,   345600, 435a6e32d1aa7c37867abdc3b031df6a
1,     845824,     845824,     2048,     8192, eafc612cd3a1aa375bc3046eb90e92bb
0,        480,        480,        1,   345600, 717a06d66e008315399088010f35105e
1,     847872,     847872,     2048,     8192, 3d52e36dbb775c909c334ba93bed0d69
0,        481,        481,        1,   345600, b67af71da5b68c6bd8cd138000a97559
1,     849920,     849920,     2048,     8192, 75dcb9f0d7a1f919b1fd6fb5fdb9cfc8
0,        482,        482,        1,   345600, 36ace04318d8210a1fbf2c441a764cb2
1,     851968,     851968,     2048,     8192, 788ef64e11a12e4b0e84921f7c217c1e
0,        483,        483,        1,   345600, 435a6e32d1aa7c37867abdc3b031df6a
0,        484,        484,        1,   345600, 717a06d66e008315399088010f35105e
1,     854016,     854016,     2048,     8192, ffdf85c0e9d54d1e4605fb8d3c8d0741
0,        485,        485,        1,   345600, e03cd145884fc9fa130ee04ad5008c60
1,     856064,     856064,     2048,     8192, dcf1db6044e20bf7dafbfb2287820dce
0,        486,        486,        1,   345600, f6772d33b0a391c09b3df1fc9c5a8cd4
1,     858112,     858112,     2048,     8192, 0e611757aa2a7a5b9d8866d56bcbcf14
0,        487,        487,        1,   345600, 49b75b7f8090824c428dd9fbb9b0286c
1,     860160,     860160,     2048,     8192, b54d4270e96bebc44cae8e7517a664b8
0,        488,        488,        1,   345600, 703fca17020c554559c32739d90ee9c7
1,     862208,     862208,     2048,     8192, bda9b7859e03547b4f33d25300cf2acd
0,        489,        489,        1,   345600, 3206b5e2fccc2bba52cf537f6a8d32f8
1,     864256,     864256,     2048,     8192, 2b752dd71e5f310fea52f16ba3c7fcd9
0,        490,        490,        1,   345600, 3cf5b2a8765e917a4bef8261df0820b6
0,        491,        491,        1,   345600, c1fafe715a3a3680a71a5203aea562e2
1,     866304,     866304,     2048,     8192, 8194025f53547c4f985bc7b782308df9
0,        492,        492,        1,   345600, 16542bc2d3336369c721b253475fc338
1,     868352,     868352,     2048,     8192, 587b9840e5c2c883b84f93b5cda10d0f
0,        493,        493,        1,   345600, a0e33262a44c4285450b799b4317f969
1,     870400,     870400,     2048,     8192, 67e55b7ca4840c9d829e24b1a808c8d8
0,        494,        494,        1,   345600, b56c775c3027b17f62128d57688836d6
1,     872448,     872448,     2048,     8192, c02650197974f1da9008b5cd16ff658d
0,        495,        495,        1,   345600, af0fbb90d4ee89001b67612a2e5f8b7e
1,     874496,     874496,     2048,     8192, 0d7a86af2ed6782ee774ecd90311de98
0,        496,        496,        1,   345600, e806bbcd6da36addd5da99e3ea9ce880
1,     876544,     876544,     2048,     8192, 7a975049bc5facd1b0b8c90c313714ca
0,        497,        497,        1,   345600, 40b2130b90ef08849446875e11539986
0,        498,        498,        1,   345600, b56c775c3027b17f62128d57688836d6
1,     878592,     878592,     2048,     8192, 7bd4652bf3fab108bffb1085e97a76d8
0,        499,        499,        1,   345600, af0fbb90d4ee89001b67612a2e5f8b7e
1,     880640,     880640,     1360,     5440, 1f25a41d696379273466170be0d4bdfa
